<?xml version="1.0" encoding="UTF-8"?>
<svg width="64px" height="64px" viewBox="0 0 64 64" version="1.1" xmlns="http://www.w3.org/2000/svg" xmlns:xlink="http://www.w3.org/1999/xlink">
    <!-- Generator: sketchtool 52.5 (67469) - http://www.bohemiancoding.com/sketch -->
    <title>4594C67D-9B54-4E5A-9AB2-26AB2A0C55A1@3x</title>
    <desc>Created with sketchtool.</desc>
    <g id="Home-1.2" stroke="none" stroke-width="1" fill="none" fill-rule="evenodd">
        <g id="Home-Logged-In" transform="translate(-453.000000, -428.000000)" fill="#B43DAF" fill-rule="nonzero">
            <g id="Video-Output" transform="translate(40.000000, 168.000000)">
                <g id="Animation" transform="translate(0.000000, 12.000000)">
                    <g id="button-circle-play" transform="translate(413.000000, 248.000000)">
                        <path d="M32,0 C14.354087,0 0,14.354087 0,32 C0,49.645913 14.354087,64 32,64 C49.645913,64 64,49.645913 64,32 C64,14.354087 49.645913,0 32,0 Z M43.8594783,33.1853913 L25.7725217,44.3158261 C25.5485217,44.4521739 25.2966957,44.5217391 25.0434783,44.5217391 C24.8097391,44.5217391 24.576,44.4633043 24.3645217,44.3450435 C23.9248696,44.0987826 23.6521739,43.634087 23.6521739,43.1304348 L23.6521739,20.8695652 C23.6521739,20.365913 23.9248696,19.9012174 24.3645217,19.6549565 C24.8055652,19.4073043 25.3426087,19.4198261 25.773913,19.6841739 L43.8608696,30.8146087 C44.2713043,31.0678261 44.5217391,31.5158261 44.5217391,32 C44.5217391,32.4841739 44.2713043,32.9321739 43.8594783,33.1853913 Z" id="Shape"></path>
                    </g>
                </g>
            </g>
        </g>
    </g>
</svg>