<?xml version="1.0" encoding="UTF-8"?>
<svg width="16px" height="16px" viewBox="0 0 16 16" version="1.1" xmlns="http://www.w3.org/2000/svg" xmlns:xlink="http://www.w3.org/1999/xlink">
    <!-- Generator: sketchtool 52.5 (67469) - http://www.bohemiancoding.com/sketch -->
    <title>7FA0720D-E375-4692-855B-4B48B516D2A2@3x</title>
    <desc>Created with sketchtool.</desc>
    <g id="Home-1.2" stroke="none" stroke-width="1" fill="none" fill-rule="evenodd">
        <g id="Home-Logged-In" transform="translate(-1742.000000, -930.000000)" fill="#FFFFFF" fill-rule="nonzero">
            <g id="Render" transform="translate(990.000000, 908.000000)">
                <g id="Render-Btn" transform="translate(732.000000, 8.000000)">
                    <g id="icon-render" transform="translate(20.000000, 14.000000)">
                        <path d="M15.4,3.1 L8.4,0.1 C8.1,-5.37764278e-16 7.9,-5.37764278e-16 7.6,0.1 L0.6,3.1 C0.2,3.2 0,3.6 0,4 L0,12 C0,12.4 0.2,12.8 0.6,12.9 L7.6,15.9 C7.7,16 7.9,16 8,16 C8.1,16 8.3,16 8.4,15.9 L15.4,12.9 C15.8,12.7 16,12.4 16,12 L16,4 C16,3.6 15.8,3.2 15.4,3.1 Z M8,2.1 L12.5,4 L8,5.9 L3.5,4 L8,2.1 Z M2,5.5 L7,7.6 L7,13.4 L2,11.3 L2,5.5 Z M9,13.5 L9,7.7 L14,5.6 L14,11.4 L9,13.5 Z" id="Shape"></path>
                    </g>
                </g>
            </g>
        </g>
    </g>
</svg>