<?xml version="1.0" encoding="UTF-8"?>
<svg width="16px" height="16px" viewBox="0 0 16 16" version="1.1" xmlns="http://www.w3.org/2000/svg" xmlns:xlink="http://www.w3.org/1999/xlink">
    <!-- Generator: sketchtool 52.5 (67469) - http://www.bohemiancoding.com/sketch -->
    <title>2465F5D3-652B-42F7-97EA-FA89E2A15C82@3x</title>
    <desc>Created with sketchtool.</desc>
    <g id="Home-1.2" stroke="none" stroke-width="1" fill="none" fill-rule="evenodd">
        <g id="Home-Logged-In" transform="translate(-1134.000000, -182.000000)" fill="#B43DAF" fill-rule="nonzero">
            <g id="Code" transform="translate(990.000000, 168.000000)">
                <g id="Files">
                    <g id="icon-new" transform="translate(144.000000, 14.000000)">
                        <path d="M15,3 L8.4,3 L5.7,0.3 C5.5,0.1 5.3,0 5,0 L1,0 C0.4,0 0,0.4 0,1 L0,15 C0,15.6 0.4,16 1,16 L15,16 C15.6,16 16,15.6 16,15 L16,4 C16,3.4 15.6,3 15,3 Z M11,10 L9,10 L9,12 L7,12 L7,10 L5,10 L5,8 L7,8 L7,6 L9,6 L9,8 L11,8 L11,10 Z" id="Shape"></path>
                    </g>
                </g>
            </g>
        </g>
    </g>
</svg>