<?xml version="1.0" encoding="UTF-8"?>
<svg width="14px" height="16px" viewBox="0 0 14 16" version="1.1" xmlns="http://www.w3.org/2000/svg" xmlns:xlink="http://www.w3.org/1999/xlink">
    <!-- Generator: sketchtool 52.5 (67469) - http://www.bohemiancoding.com/sketch -->
    <title>CBB9DC4C-D531-4919-8085-BFB447020B42@3x</title>
    <desc>Created with sketchtool.</desc>
    <g id="Login/Signup-1.0" stroke="none" stroke-width="1" fill="none" fill-rule="evenodd">
        <g id="Signup" transform="translate(-767.000000, -456.000000)" fill="#A2A2A2">
            <g transform="translate(710.000000, 273.000000)" id="Name">
                <g transform="translate(40.000000, 167.000000)">
                    <g id="icon-name" transform="translate(17.000000, 16.000000)">
                        <path d="M7,0 C4.794,0 3,1.794 3,4 L3,5 C3,7.206 4.794,9 7,9 C9.206,9 11,7.206 11,5 L11,4 C11,1.794 9.206,0 7,0 Z" id="Path"></path>
                        <path d="M11.036,9.426 C9.969,10.4 8.555,11 7,11 C5.445,11 4.031,10.4 2.964,9.426 C1.203,10 0,11.311 0,13 L0,16 L14,16 L14,13 C14,11.311 12.797,10 11.036,9.426 Z" id="Path"></path>
                    </g>
                </g>
            </g>
        </g>
    </g>
</svg>