<?xml version="1.0" encoding="UTF-8"?>
<svg width="14px" height="16px" viewBox="0 0 14 16" version="1.1" xmlns="http://www.w3.org/2000/svg" xmlns:xlink="http://www.w3.org/1999/xlink">
    <!-- Generator: sketchtool 52.5 (67469) - http://www.bohemiancoding.com/sketch -->
    <title>8ABEB8E2-9896-4087-99B4-406731D883F7@3x</title>
    <desc>Created with sketchtool.</desc>
    <g id="Login/Signup-1.0" stroke="none" stroke-width="1" fill="none" fill-rule="evenodd">
        <g id="Signup" transform="translate(-767.000000, -592.000000)" fill="#A2A2A2" fill-rule="nonzero">
            <g transform="translate(710.000000, 273.000000)" id="Password">
                <g transform="translate(40.000000, 303.000000)">
                    <g id="icon-password" transform="translate(17.000000, 16.000000)">
                        <path d="M7,0 C4.8,0 3,1.8 3,4 L3,5 L1,5 C0.4,5 0,5.4 0,6 L0,15 C0,15.6 0.4,16 1,16 L13,16 C13.6,16 14,15.6 14,15 L14,6 C14,5.4 13.6,5 13,5 L11,5 L11,4 C11,1.8 9.2,0 7,0 Z M8,11.7 L8,13 L6,13 L6,11.7 C5.4,11.4 5,10.7 5,10 C5,8.9 5.9,8 7,8 C8.1,8 9,8.9 9,10 C9,10.7 8.6,11.4 8,11.7 Z M9,5 L5,5 L5,4 C5,2.9 5.9,2 7,2 C8.1,2 9,2.9 9,4 L9,5 Z" id="Shape"></path>
                    </g>
                </g>
            </g>
        </g>
    </g>
</svg>