<?xml version="1.0" encoding="UTF-8"?>
<svg width="14px" height="16px" viewBox="0 0 14 16" version="1.1" xmlns="http://www.w3.org/2000/svg" xmlns:xlink="http://www.w3.org/1999/xlink">
    <!-- Generator: sketchtool 52.5 (67469) - http://www.bohemiancoding.com/sketch -->
    <title>ECB87264-DFEC-42D2-849F-54B085EA1025@3x</title>
    <desc>Created with sketchtool.</desc>
    <g id="Home-1.2" stroke="none" stroke-width="1" fill="none" fill-rule="evenodd">
        <g id="Home-Logged-In" transform="translate(-1100.000000, -182.000000)" fill="#B43DAF">
            <g id="Code" transform="translate(990.000000, 168.000000)">
                <g id="Files">
                    <g id="icon-file" transform="translate(110.000000, 14.000000)">
                        <polygon id="Path" points="10 0 10 4 14 4"></polygon>
                        <path d="M9,5 L14,5 L14,15 C14,15.6 13.6,16 13,16 L1,16 C0.4,16 0,15.6 0,15 L0,1 C0,0.4 0.4,0 1,0 L9,0 L9,5 Z M10,10 L10,8 L8,8 L8,6 L6,6 L6,8 L4,8 L4,10 L6,10 L6,12 L8,12 L8,10 L10,10 Z" id="Combined-Shape"></path>
                    </g>
                </g>
            </g>
        </g>
    </g>
</svg>