<?xml version="1.0" encoding="UTF-8"?>
<svg width="16px" height="14px" viewBox="0 0 16 14" version="1.1" xmlns="http://www.w3.org/2000/svg" xmlns:xlink="http://www.w3.org/1999/xlink">
    <!-- Generator: sketchtool 52.5 (67469) - http://www.bohemiancoding.com/sketch -->
    <title>22187AFE-30C1-42A1-B597-D4AA2B5F45AB@3x</title>
    <desc>Created with sketchtool.</desc>
    <g id="Login/Signup-1.0" stroke="none" stroke-width="1" fill="none" fill-rule="evenodd">
        <g id="Signup" transform="translate(-766.000000, -525.000000)" fill="#A2A2A2">
            <g transform="translate(710.000000, 273.000000)" id="Email">
                <g transform="translate(40.000000, 235.000000)">
                    <g id="icon-email" transform="translate(16.000000, 17.000000)">
                        <path d="M15,0 L1,0 C0.4,0 0,0.4 0,1 L0,2.4 L8,6.9 L16,2.5 L16,1 C16,0.4 15.6,0 15,0 Z" id="Path"></path>
                        <path d="M7.5,8.9 L0,4.7 L0,13 C0,13.6 0.4,14 1,14 L15,14 C15.6,14 16,13.6 16,13 L16,4.7 L8.5,8.9 C8.22,9.04 7.78,9.04 7.5,8.9 Z" id="Path"></path>
                    </g>
                </g>
            </g>
        </g>
    </g>
</svg>